<svg width="36" height="36" viewBox="0 0 36 36" fill="none" xmlns="http://www.w3.org/2000/svg">
<path d="M17.7479 35.4958C27.5498 35.4958 35.4958 27.5498 35.4958 17.7479C35.4958 7.94601 27.5498 0 17.7479 0C7.94601 0 0 7.94601 0 17.7479C0 27.5498 7.94601 35.4958 17.7479 35.4958Z" fill="#507CBE"/>
<path d="M20.706 11.3881H22.9245V7.8385H20.1144H19.5228C19.5228 7.8385 17.4522 7.8385 16.1212 9.46539C16.1212 9.46539 15.2338 10.3528 15.2338 12.7192V15.2335H11.98V18.9309H15.2338V28.3965H19.0791V18.9309H22.3329L22.7766 15.2335H19.0791V12.8671C19.0791 12.5713 19.227 11.2402 20.706 11.3881Z" fill="white"/>
</svg>
