<svg width="36" height="36" viewBox="0 0 36 36" fill="none" xmlns="http://www.w3.org/2000/svg">
<path d="M18.2435 35.4958C28.0454 35.4958 35.9914 27.5498 35.9914 17.7479C35.9914 7.94601 28.0454 0 18.2435 0C8.44161 0 0.495605 7.94601 0.495605 17.7479C0.495605 27.5498 8.44161 35.4958 18.2435 35.4958Z" fill="url(#paint0_radial_69_291)"/>
<path d="M22.3847 7.39508H14.3982C10.8486 7.39508 7.89062 10.2052 7.89062 13.7547V21.7413C7.89062 25.2909 10.8486 28.101 14.3982 28.101H22.3847C25.9343 28.101 28.8923 25.2909 28.8923 21.7413V13.7547C28.8923 10.2052 25.9343 7.39508 22.3847 7.39508ZM26.8217 21.0018C26.8217 23.8119 24.4553 26.1783 21.6452 26.1783H15.1377C12.3276 26.1783 9.96121 23.8119 9.96121 21.0018V14.4942C9.96121 11.6842 12.3276 9.31777 15.1377 9.31777H21.6452C24.4553 9.31777 26.8217 11.6842 26.8217 14.4942V21.0018ZM18.6873 12.2758C15.5814 12.2758 13.215 14.6421 13.215 17.748C13.215 20.706 15.7293 23.2203 18.6873 23.2203C21.7931 23.2203 24.1595 20.706 24.1595 17.748C24.1595 14.79 21.6452 12.2758 18.6873 12.2758ZM18.6873 21.0018C16.9125 21.0018 15.4335 19.5228 15.4335 17.748C15.4335 15.9732 16.9125 14.4942 18.6873 14.4942C20.4621 14.4942 21.941 15.9732 21.941 17.748C21.941 19.5228 20.4621 21.0018 18.6873 21.0018ZM23.7158 13.6068C24.4553 13.6068 25.1948 13.0152 25.1948 12.2758C25.1948 11.5363 24.6032 10.9447 23.7158 10.9447C22.9763 10.9447 22.2368 11.5363 22.2368 12.2758C22.3847 13.0152 22.9763 13.6068 23.7158 13.6068Z" fill="white"/>
<defs>
<radialGradient id="paint0_radial_69_291" cx="0" cy="0" r="1" gradientUnits="userSpaceOnUse" gradientTransform="translate(10.0975 38.0177) rotate(-55.7276) scale(46.0085 45.8791)">
<stop stop-color="#FEDB7F"/>
<stop offset="0.3378" stop-color="#FA6C2A"/>
<stop offset="0.5867" stop-color="#D92D76"/>
<stop offset="1" stop-color="#525DD0"/>
</radialGradient>
</defs>
</svg>
