<svg width="45" height="46" viewBox="0 0 45 46" fill="none" xmlns="http://www.w3.org/2000/svg">
<path d="M35.9041 34.6292L38.119 39.6119C38.1518 39.6857 38.1988 39.7524 38.2574 39.8081C38.316 39.8638 38.385 39.9074 38.4605 39.9364C38.5359 39.9654 38.6163 39.9793 38.6971 39.9772C38.7779 39.9752 38.8575 39.9572 38.9314 39.9244C39.0053 39.8916 39.072 39.8445 39.1276 39.7859C39.1833 39.7273 39.2269 39.6583 39.256 39.5829C39.285 39.5075 39.2989 39.427 39.2968 39.3462C39.2947 39.2654 39.2768 39.1858 39.244 39.1119L37.0291 34.1293C36.9963 34.0554 36.9492 33.9887 36.8906 33.933C36.832 33.8773 36.7631 33.8337 36.6876 33.8047C36.6122 33.7757 36.5317 33.7618 36.4509 33.7639C36.3701 33.7659 36.2905 33.7839 36.2166 33.8167C36.1428 33.8495 36.0761 33.8966 36.0204 33.9552C35.9647 34.0138 35.9211 34.0828 35.8921 34.1582C35.8631 34.2337 35.8492 34.3141 35.8513 34.3949C35.8533 34.4757 35.8713 34.5553 35.9041 34.6292Z" fill="#3960FF"/>
<path d="M43.2772 42.9957L37.058 28.9996C37.0097 28.8909 36.9308 28.7984 36.8309 28.7336C36.7311 28.6688 36.6146 28.6343 36.4955 28.6344H29.4717C31.3659 25.5867 33.0249 22.3769 34.0234 19.4417C34.5852 17.9236 34.9006 16.3253 34.9575 14.7076C34.9662 13.066 34.6504 11.4389 34.0282 9.91982C33.4061 8.40071 32.4898 7.01954 31.3321 5.85569C30.1745 4.69185 28.7982 3.76827 27.2824 3.13806C25.7666 2.50784 24.1412 2.18341 22.4997 2.18341C20.8581 2.18341 19.2327 2.50784 17.7169 3.13806C16.2011 3.76827 14.8249 4.69185 13.6672 5.85569C12.5095 7.01954 11.5933 8.40071 10.9711 9.91982C10.3489 11.4389 10.0332 13.066 10.0419 14.7076C10.0988 16.3254 10.4141 17.9238 10.976 19.4421C11.9744 22.3787 13.6338 25.5867 15.528 28.6344H8.50414C8.38509 28.6343 8.26858 28.6688 8.16874 28.7336C8.0689 28.7984 7.99001 28.8909 7.94164 28.9996L1.7225 42.9957C1.68084 43.0894 1.66326 43.192 1.67135 43.2942C1.67945 43.3964 1.71297 43.495 1.76886 43.581C1.82475 43.667 1.90125 43.7376 1.99139 43.7865C2.08153 43.8354 2.18246 43.8609 2.285 43.8609H42.7147C42.8172 43.8609 42.9182 43.8354 43.0083 43.7865C43.0984 43.7376 43.1749 43.667 43.2308 43.581C43.2867 43.495 43.3202 43.3964 43.3283 43.2942C43.3364 43.192 43.3188 43.0894 43.2772 42.9957ZM11.2723 14.7079C11.2641 13.2282 11.5484 11.7615 12.1089 10.3921C12.6694 9.02264 13.4951 7.77752 14.5384 6.72829C15.5818 5.67906 16.8223 4.84642 18.1886 4.27825C19.5549 3.71008 21.02 3.41758 22.4997 3.41758C23.9794 3.41758 25.4445 3.71008 26.8108 4.27825C28.177 4.84642 29.4175 5.67906 30.4609 6.72829C31.5043 7.77752 32.33 9.02264 32.8905 10.3921C33.451 11.7615 33.7353 13.2282 33.727 14.7079C33.6693 16.1909 33.3761 17.6553 32.8583 19.0462C31.7892 22.1909 29.9364 25.6633 27.852 28.8991C27.8475 28.9058 27.8432 28.9128 27.839 28.9195C26.2191 31.4391 24.4356 33.8497 22.4998 36.1356C20.564 33.8498 18.7803 31.4394 17.1603 28.9198C17.1557 28.9128 17.1519 28.9058 17.147 28.8991C15.0625 25.6647 13.2095 22.1909 12.1411 19.0465C11.6233 17.6555 11.33 16.191 11.2723 14.7079ZM3.23141 42.6304L8.90387 29.8652H16.3123C18.0417 32.534 19.9554 35.0788 22.0393 37.4811C22.097 37.5468 22.1681 37.5994 22.2478 37.6355C22.3275 37.6715 22.414 37.6902 22.5014 37.6902C22.5889 37.6902 22.6754 37.6715 22.755 37.6355C22.8347 37.5994 22.9058 37.5468 22.9636 37.4811C25.0464 35.0787 26.959 32.5339 28.6873 29.8652H36.0941L41.7665 42.6308L3.23141 42.6304Z" fill="#3960FF"/>
<path d="M22.4996 21.2431C23.7924 21.2431 25.0561 20.8597 26.131 20.1415C27.2059 19.4233 28.0437 18.4024 28.5384 17.2081C29.0331 16.0137 29.1625 14.6995 28.9103 13.4316C28.658 12.1636 28.0355 10.999 27.1213 10.0849C26.2072 9.1708 25.0425 8.54831 23.7746 8.29615C22.5066 8.04398 21.1924 8.17347 19.9981 8.66824C18.8037 9.16301 17.7829 10.0008 17.0648 11.0758C16.3466 12.1507 15.9633 13.4144 15.9634 14.7072C15.9654 16.4401 16.6547 18.1014 17.8801 19.3266C19.1054 20.5519 20.7668 21.2411 22.4996 21.2431ZM22.4996 9.40106C23.549 9.40106 24.5748 9.71223 25.4473 10.2952C26.3198 10.8782 26.9999 11.7068 27.4015 12.6763C27.8031 13.6458 27.9082 14.7126 27.7035 15.7418C27.4988 16.771 26.9935 17.7164 26.2515 18.4585C25.5095 19.2005 24.5641 19.7059 23.535 19.9106C22.5058 20.1154 21.4389 20.0104 20.4694 19.6088C19.4999 19.2073 18.6713 18.5273 18.0882 17.6548C17.5052 16.7824 17.1939 15.7566 17.1938 14.7072C17.1954 13.3005 17.7549 11.9519 18.7496 10.9572C19.7443 9.96251 21.0929 9.40265 22.4996 9.40106Z" fill="#3960FF"/>
</svg>
