<svg width="40" height="41" viewBox="0 0 40 41" fill="none" xmlns="http://www.w3.org/2000/svg">
<path d="M23.3333 2.79999H16.6666C16.2987 2.79999 16 3.09866 16 3.46663C16 3.8346 16.2987 4.13327 16.6666 4.13327H23.3333C23.7012 4.13327 23.9999 3.8346 23.9999 3.46663C23.9999 3.09866 23.7012 2.79999 23.3333 2.79999Z" fill="#3960FF"/>
<path d="M27.9998 2.79999H27.3331C26.9652 2.79999 26.6665 3.09866 26.6665 3.46663C26.6665 3.8346 26.9652 4.13327 27.3331 4.13327H27.9998C28.3678 4.13327 28.6664 3.8346 28.6664 3.46663C28.6664 3.09866 28.3678 2.79999 27.9998 2.79999Z" fill="#3960FF"/>
<path d="M20.8276 34.8H19.1723C18.1583 34.8 17.333 35.6253 17.333 36.6393V36.9613C17.333 37.9753 18.1583 38.8 19.1717 38.8H20.827C21.841 38.8 22.6663 37.9753 22.6663 36.9613V36.6393C22.6663 35.6253 21.841 34.8 20.8276 34.8ZM21.333 36.9613C21.333 37.24 21.1064 37.4666 20.8277 37.4666H19.1723C18.893 37.4666 18.6663 37.24 18.6663 36.9613V36.6393C18.6663 36.36 18.8929 36.1333 19.1723 36.1333H20.827C21.1064 36.1333 21.333 36.3599 21.333 36.6393V36.9613Z" fill="#3960FF"/>
<path d="M28.9238 0.799988H11.0765C9.74783 0.799988 8.6665 1.88132 8.6665 3.20999V38.39C8.6665 39.7187 9.74783 40.8 11.0765 40.8H28.9231C30.2518 40.8 31.3331 39.7187 31.3331 38.3907V3.20999C31.3332 1.88132 30.2519 0.799988 28.9238 0.799988ZM29.9999 38.39C29.9999 38.9833 29.5172 39.4666 28.9238 39.4666H11.0765C10.4825 39.4666 9.99986 38.9833 9.99986 38.3906V3.20999C9.99986 2.61663 10.4825 2.13335 11.0765 2.13335H28.9231C29.5171 2.13335 29.9998 2.61671 29.9998 3.20999V38.39H29.9999Z" fill="#3960FF"/>
<path d="M30.6664 4.79999H9.33314C8.96518 4.79999 8.6665 5.09866 8.6665 5.46663V33.4666C8.6665 33.8346 8.96518 34.1333 9.33314 34.1333H30.6665C31.0345 34.1333 31.3331 33.8346 31.3331 33.4666V5.46663C31.3331 5.09866 31.0345 4.79999 30.6664 4.79999ZM29.9998 32.8H9.99979V6.13335H29.9998V32.8Z" fill="#3960FF"/>
</svg>
