<svg width="36" height="36" viewBox="0 0 36 36" fill="none" xmlns="http://www.w3.org/2000/svg">
<path d="M17.7479 35.4958C27.5092 35.4958 35.4958 27.5092 35.4958 17.7479C35.4958 7.98656 27.5092 0 17.7479 0C7.98656 0 0 7.98656 0 17.7479C0 27.5092 7.98656 35.4958 17.7479 35.4958Z" fill="#7C529D"/>
<path d="M27.8053 13.1631C27.2137 11.0925 24.9952 9.02198 23.0725 8.57828C19.8187 7.98668 16.417 7.98668 13.1633 8.57828C11.0927 9.02198 8.87421 11.0925 8.43051 13.1631C7.83892 15.9732 7.83892 18.7833 8.43051 21.5934C8.87421 23.5161 10.9448 25.5867 13.0154 26.1783V28.3968C13.0154 29.1363 14.0506 29.5799 14.4943 28.9883L16.7128 26.622C17.3044 26.622 17.7481 26.622 18.1918 26.622C19.8187 26.622 21.4456 26.4741 23.2204 26.1783C25.291 25.7346 27.5095 23.664 27.9532 21.5934C28.3969 18.7833 28.3969 15.9732 27.8053 13.1631ZM26.0305 21.1497C25.7347 22.4808 23.9599 24.1077 22.6288 24.4035C20.854 24.6993 19.0793 24.8472 17.3045 24.8472H17.1566C16.8608 25.143 15.5297 26.474 15.5297 26.474L13.7548 28.2488C13.6069 28.3967 13.4591 28.2488 13.4591 28.1009V24.4035C13.4591 24.2556 13.4591 24.2556 13.3112 24.2556C11.9801 23.9598 10.3532 22.3329 9.90951 21.0018C9.31791 18.4875 9.31791 15.8253 9.90951 13.311C10.2053 11.9799 11.9801 10.3531 13.3112 10.0573C16.417 9.46567 19.523 9.46567 22.4809 10.0573C23.812 10.3531 25.4389 11.9799 25.8826 13.311C26.4742 15.9732 26.4742 18.6354 26.0305 21.1497ZM21.5935 19.8186C21.2977 19.6707 21.0019 19.3749 20.7061 19.227C20.4103 19.0791 19.9666 19.0791 19.6708 19.227C19.375 19.5228 19.2272 19.9665 18.7835 19.9665C18.4877 19.9665 18.3398 19.8186 18.044 19.8186C16.7129 19.227 15.8254 18.1917 15.3817 16.8606C15.2338 16.7127 15.2338 16.5648 15.3817 16.269C15.5296 16.1211 15.5297 16.1211 15.5297 16.1211C15.6776 15.9732 15.6776 15.9732 15.8255 15.9732C16.1213 15.6774 16.2691 15.2337 16.1212 14.79C15.8254 14.1984 15.3818 13.6069 14.9381 13.0153C14.6423 12.7195 14.3465 12.7194 14.1986 12.8673C13.9028 13.0152 13.4591 13.311 13.1633 13.6068C12.8675 13.9026 12.5717 14.4942 12.8675 14.9379C13.0154 15.5295 13.3112 15.9732 13.4591 16.4169C14.0507 17.4522 14.6423 18.4875 15.3817 19.3749C16.8607 21.0018 18.4876 21.8892 20.4103 22.7766C20.5582 22.9245 20.7061 22.9245 21.0019 22.9245C21.1498 22.7766 21.2977 22.7766 21.5935 22.7766C22.1851 22.4808 22.6288 22.0371 22.7767 21.4455C22.9246 21.1497 22.9246 20.8539 22.6288 20.5581C22.1851 20.2623 21.8893 19.9665 21.5935 19.8186ZM18.044 11.9799C17.8961 11.9799 20.4103 12.1278 18.044 11.9799V11.9799ZM18.044 11.9799C17.8961 11.9799 17.8961 11.9799 17.8961 11.9799C17.7482 11.9799 17.6002 12.1279 17.6002 12.2758C17.6002 12.4237 17.8961 12.5715 18.044 12.5715C18.3398 12.5715 18.6356 12.5715 18.7835 12.7194C20.7061 13.0152 22.0372 14.6421 22.333 16.4169C22.4809 16.7127 22.4809 17.1564 22.4809 17.4522C22.4809 17.6001 22.6288 17.748 22.7767 17.748C22.9246 17.748 23.0725 17.6001 23.0725 17.4522C23.0725 17.0085 22.9246 16.5648 22.9246 16.269C22.4809 13.7547 20.4103 12.1278 18.044 11.9799ZM21.1498 16.8606C21.1498 17.0085 21.1498 17.0085 21.1498 17.1564C21.2977 17.4522 21.5935 17.3043 21.7414 17.1564C21.7414 17.0085 21.7414 17.0085 21.7414 17.0085C21.7414 16.8606 21.7414 16.7127 21.7414 16.5648C21.7414 16.4169 21.7414 16.4169 21.7414 16.4169C21.5935 15.2337 21.0019 14.3463 19.9666 13.9026C19.375 13.6068 18.9313 13.6068 18.3397 13.4589C18.1918 13.4589 18.044 13.6069 18.044 13.7548C18.044 13.9026 18.1918 14.0505 18.3397 14.0505C18.4876 14.0505 18.6356 14.0505 18.7835 14.1984C19.0793 14.3463 19.375 14.3463 19.8187 14.4942C20.2624 14.79 20.7061 15.0858 21.0019 15.6774C21.0019 15.8253 21.1498 16.4169 21.1498 16.8606ZM20.2624 16.8606C20.4103 16.8606 20.4103 16.7127 20.4103 16.7127C20.4103 16.7127 20.4103 16.5648 20.4103 16.4169C20.2624 15.2337 19.6708 14.79 18.6355 14.79C18.4876 14.79 18.3397 14.9379 18.3397 15.0858C18.3397 15.2337 18.4876 15.3816 18.6355 15.3816C18.7834 15.3816 18.9313 15.3816 19.0792 15.5295C19.2271 15.5295 19.375 15.6774 19.375 15.6774C19.5229 15.8253 19.6708 15.9732 19.8187 16.269C19.8187 16.4169 19.8187 16.5648 19.9666 16.5648C19.8187 16.8606 19.9666 16.8606 20.2624 16.8606C20.1145 16.8606 19.9666 16.8606 20.2624 16.8606Z" fill="white"/>
</svg>
